HIERARCHY
ROOT Hips
{
	OFFSET 0.000000 83.214638 0.000000
	CHANNELS 6 Xposition Yposition Zposition Xrotation Yrotation Zrotation
	JOINT Pelvis
	{
		OFFSET 0.000000 0.000000 0.000000
		CHANNELS 3 Xrotation Yrotation Zrotation
		JOINT LeftUpLeg
		{
			OFFSET 8.479700 -4.795502 -0.379100
			CHANNELS 3 Xrotation Yrotation Zrotation
			JOINT LeftLeg
			{
				OFFSET 0.024144 -32.555107 0.112900
				CHANNELS 3 Xrotation Yrotation Zrotation
				JOINT LeftFoot
				{
					OFFSET -0.024144 -32.638630 -3.012600
					CHANNELS 3 Xrotation Yrotation Zrotation
					JOINT LeftToeBase
					{
						OFFSET 0.970200 -13.225400 11.864200
						CHANNELS 3 Xrotation Yrotation Zrotation
						End Site
						{
							OFFSET 0.000000 12.319262 0.000000
						}
					}
					JOINT LFootTongue
					{
						OFFSET 1.142400 -1.059800 6.665200
						CHANNELS 3 Xrotation Yrotation Zrotation
						End Site
						{
							OFFSET 0.000000 12.319262 0.000000
						}
					}
				}
				JOINT LeftPantLeg
				{
					OFFSET 0.918482 -16.533964 -2.284700
					CHANNELS 3 Xrotation Yrotation Zrotation
					End Site
					{
						OFFSET 0.350399 24.744368 0.000000
					}
				}
			}
		}
		JOINT RightUpLeg
		{
			OFFSET -8.479700 -4.795502 -0.379100
			CHANNELS 3 Xrotation Yrotation Zrotation
			JOINT RightLeg
			{
				OFFSET -0.023144 -32.555092 0.112900
				CHANNELS 3 Xrotation Yrotation Zrotation
				JOINT RightFoot
				{
					OFFSET 0.023144 -32.638641 -3.012700
					CHANNELS 3 Xrotation Yrotation Zrotation
					JOINT RightToeBase
					{
						OFFSET -0.970200 -13.225400 11.864200
						CHANNELS 3 Xrotation Yrotation Zrotation
						End Site
						{
							OFFSET 0.000000 12.319244 0.000000
						}
					}
					JOINT RFootTongue
					{
						OFFSET -1.142200 -1.059800 6.665200
						CHANNELS 3 Xrotation Yrotation Zrotation
						End Site
						{
							OFFSET 0.000000 12.319243 0.000000
						}
					}
				}
				JOINT RightPantLeg
				{
					OFFSET -0.919482 -16.533978 -2.284800
					CHANNELS 3 Xrotation Yrotation Zrotation
					End Site
					{
						OFFSET -0.350400 24.744419 0.000000
					}
				}
			}
		}
	}
	JOINT Spine
	{
		OFFSET 0.000000 7.722000 1.166200
		CHANNELS 3 Xrotation Yrotation Zrotation
		JOINT Spine1
		{
			OFFSET 0.000000 12.024101 0.248800
			CHANNELS 3 Xrotation Yrotation Zrotation
			JOINT Spine2
			{
				OFFSET 0.000000 11.502998 -0.491200
				CHANNELS 3 Xrotation Yrotation Zrotation
				JOINT Neck
				{
					OFFSET 0.000000 18.430702 -3.123100
					CHANNELS 3 Xrotation Yrotation Zrotation
					JOINT Head
					{
						OFFSET 0.000000 9.051102 1.034000
						CHANNELS 3 Xrotation Yrotation Zrotation
						JOINT HairB
						{
							OFFSET 0.208400 24.786102 24.822300
							CHANNELS 3 Xrotation Yrotation Zrotation
							End Site
							{
								OFFSET 0.000000 32.263779 0.000000
							}
						}
						JOINT HairA
						{
							OFFSET -7.081100 24.428299 23.196600
							CHANNELS 3 Xrotation Yrotation Zrotation
							End Site
							{
								OFFSET 0.000000 32.263779 0.000000
							}
						}
						JOINT Hat
						{
							OFFSET 16.728800 15.048294 -15.439601
							CHANNELS 3 Xrotation Yrotation Zrotation
							End Site
							{
								OFFSET 0.000000 32.263779 0.000000
							}
						}
					}
				}
				JOINT LeftShoulder
				{
					OFFSET 6.197800 13.665199 -4.064700
					CHANNELS 3 Xrotation Yrotation Zrotation
					JOINT LeftArm
					{
						OFFSET 7.778100 -0.187103 -1.709300
						CHANNELS 3 Xrotation Yrotation Zrotation
						JOINT LeftForeArm
						{
							OFFSET 22.049376 0.000000 0.000000
							CHANNELS 3 Xrotation Yrotation Zrotation
							JOINT LeftHand
							{
								OFFSET 23.009392 0.000000 0.000000
								CHANNELS 3 Xrotation Yrotation Zrotation
								JOINT LeftHandThumb1
								{
									OFFSET 3.507191 -2.063065 3.133727
									CHANNELS 3 Xrotation Yrotation Zrotation
									JOINT LeftHandThumb2
									{
										OFFSET 3.101337 -1.790558 1.790558
										CHANNELS 3 Xrotation Yrotation Zrotation
										JOINT LeftHandThumb3
										{
											OFFSET 3.058640 -1.765907 1.765906
											CHANNELS 3 Xrotation Yrotation Zrotation
											End Site
											{
												OFFSET -0.415260 3.926476 -0.049563
											}
										}
									}
								}
								JOINT LeftHandIndex1
								{
									OFFSET 11.334419 -0.901459 3.706815
									CHANNELS 3 Xrotation Yrotation Zrotation
									JOINT LeftHandIndex2
									{
										OFFSET 3.283112 0.000000 0.000000
										CHANNELS 3 Xrotation Yrotation Zrotation
										JOINT LeftHandIndex3
										{
											OFFSET 3.323853 0.000000 0.000000
											CHANNELS 3 Xrotation Yrotation Zrotation
											End Site
											{
												OFFSET -1.135597 3.097809 0.402452
											}
										}
									}
								}
								JOINT LeftHandMiddle1
								{
									OFFSET 11.335861 0.000000 0.000000
									CHANNELS 3 Xrotation Yrotation Zrotation
									JOINT LeftHandMiddle2
									{
										OFFSET 3.410492 0.000000 0.000000
										CHANNELS 3 Xrotation Yrotation Zrotation
										JOINT LeftHandMiddle3
										{
											OFFSET 3.312172 0.000000 0.000000
											CHANNELS 3 Xrotation Yrotation Zrotation
											End Site
											{
												OFFSET -1.150200 3.080154 0.400270
											}
										}
									}
								}
								JOINT LeftHandRing1
								{
									OFFSET 11.514786 -0.013176 -3.003090
									CHANNELS 3 Xrotation Yrotation Zrotation
									JOINT LeftHandRing2
									{
										OFFSET 3.053307 0.000000 0.000000
										CHANNELS 3 Xrotation Yrotation Zrotation
										JOINT LeftHandRing3
										{
											OFFSET 3.295807 0.000000 0.000000
											CHANNELS 3 Xrotation Yrotation Zrotation
											End Site
											{
												OFFSET -1.281006 3.013344 0.375733
											}
										}
									}
								}
								JOINT LeftHandPinky1
								{
									OFFSET 10.518692 -0.960396 -5.730441
									CHANNELS 3 Xrotation Yrotation Zrotation
									JOINT LeftHandPinky2
									{
										OFFSET 2.861649 0.000000 0.000000
										CHANNELS 3 Xrotation Yrotation Zrotation
										JOINT LeftHandPinky3
										{
											OFFSET 2.863380 0.000000 0.000000
											CHANNELS 3 Xrotation Yrotation Zrotation
											End Site
											{
												OFFSET -0.843597 2.711159 0.369971
											}
										}
									}
								}
							}
							JOINT LSleeve
							{
								OFFSET 6.676277 -0.344902 -1.011730
								CHANNELS 3 Xrotation Yrotation Zrotation
								End Site
								{
									OFFSET 0.000000 14.885353 0.000000
								}
							}
						}
					}
				}
				JOINT RightShoulder
				{
					OFFSET -6.197800 13.665199 -4.064700
					CHANNELS 3 Xrotation Yrotation Zrotation
					JOINT RightArm
					{
						OFFSET -7.778100 -0.187103 -1.709300
						CHANNELS 3 Xrotation Yrotation Zrotation
						JOINT RightForeArm
						{
							OFFSET -22.049376 0.000000 0.000000
							CHANNELS 3 Xrotation Yrotation Zrotation
							JOINT RightHand
							{
								OFFSET -23.009392 0.000000 0.000000
								CHANNELS 3 Xrotation Yrotation Zrotation
								JOINT RightHandThumb1
								{
									OFFSET -3.507191 -2.063065 3.133727
									CHANNELS 3 Xrotation Yrotation Zrotation
									JOINT RightHandThumb2
									{
										OFFSET -3.101337 -1.790558 1.790558
										CHANNELS 3 Xrotation Yrotation Zrotation
										JOINT RightHandThumb3
										{
											OFFSET -3.058640 -1.765907 1.765906
											CHANNELS 3 Xrotation Yrotation Zrotation
											End Site
											{
												OFFSET 0.415260 3.926476 -0.049563
											}
										}
									}
								}
								JOINT RightHandIndex1
								{
									OFFSET -11.334419 -0.901459 3.706815
									CHANNELS 3 Xrotation Yrotation Zrotation
									JOINT RightHandIndex2
									{
										OFFSET -3.283112 0.000000 0.000000
										CHANNELS 3 Xrotation Yrotation Zrotation
										JOINT RightHandIndex3
										{
											OFFSET -3.323853 0.000000 0.000000
											CHANNELS 3 Xrotation Yrotation Zrotation
											End Site
											{
												OFFSET 1.135597 3.097809 0.402452
											}
										}
									}
								}
								JOINT RightHandMiddle1
								{
									OFFSET -11.335861 0.000000 0.000000
									CHANNELS 3 Xrotation Yrotation Zrotation
									JOINT RightHandMiddle2
									{
										OFFSET -3.410492 0.000000 0.000000
										CHANNELS 3 Xrotation Yrotation Zrotation
										JOINT RightHandMiddle3
										{
											OFFSET -3.312172 0.000000 0.000000
											CHANNELS 3 Xrotation Yrotation Zrotation
											End Site
											{
												OFFSET 1.150200 3.080154 0.400270
											}
										}
									}
								}
								JOINT RightHandRing1
								{
									OFFSET -11.514786 -0.013176 -3.003090
									CHANNELS 3 Xrotation Yrotation Zrotation
									JOINT RightHandRing2
									{
										OFFSET -3.053307 0.000000 0.000000
										CHANNELS 3 Xrotation Yrotation Zrotation
										JOINT RightHandRing3
										{
											OFFSET -3.295807 0.000000 0.000000
											CHANNELS 3 Xrotation Yrotation Zrotation
											End Site
											{
												OFFSET 1.281006 3.013344 0.375733
											}
										}
									}
								}
								JOINT RightHandPinky1
								{
									OFFSET -10.518692 -0.960396 -5.730441
									CHANNELS 3 Xrotation Yrotation Zrotation
									JOINT RightHandPinky2
									{
										OFFSET -2.861649 0.000000 0.000000
										CHANNELS 3 Xrotation Yrotation Zrotation
										JOINT RightHandPinky3
										{
											OFFSET -2.863380 0.000000 0.000000
											CHANNELS 3 Xrotation Yrotation Zrotation
											End Site
											{
												OFFSET 0.843597 2.711159 0.369971
											}
										}
									}
								}
							}
							JOINT RSleeve
							{
								OFFSET -6.676277 -0.344902 -1.011730
								CHANNELS 3 Xrotation Yrotation Zrotation
								End Site
								{
									OFFSET 0.000000 14.885353 0.000000
								}
							}
						}
					}
				}
				JOINT Backpack
				{
					OFFSET 0.000000 -2.471497 36.677502
					CHANNELS 3 Xrotation Yrotation Zrotation
					End Site
					{
						OFFSET 0.000000 20.427315 0.000000
					}
				}
				JOINT Hood
				{
					OFFSET 0.000000 18.754097 -10.431000
					CHANNELS 3 Xrotation Yrotation Zrotation
					JOINT Hood1
					{
						OFFSET 0.000000 -5.011002 -7.685901
						CHANNELS 3 Xrotation Yrotation Zrotation
						End Site
						{
							OFFSET 0.000000 9.175140 0.000000
						}
					}
				}
				JOINT LHoodieString
				{
					OFFSET 5.250500 16.397697 3.089900
					CHANNELS 3 Xrotation Yrotation Zrotation
					JOINT LHoodieString1
					{
						OFFSET 0.257700 -6.364304 3.694600
						CHANNELS 3 Xrotation Yrotation Zrotation
						JOINT LHoodieString2
						{
							OFFSET 0.000000 -9.643799 2.679100
							CHANNELS 3 Xrotation Yrotation Zrotation
							End Site
							{
								OFFSET 0.000000 10.009018 0.000000
							}
						}
					}
				}
				JOINT RHoodieString
				{
					OFFSET -5.250500 16.397697 3.089900
					CHANNELS 3 Xrotation Yrotation Zrotation
					JOINT RHoodieString1
					{
						OFFSET -0.257700 -6.364304 3.694600
						CHANNELS 3 Xrotation Yrotation Zrotation
						JOINT RHoodieString2
						{
							OFFSET 0.000000 -9.643799 2.679100
							CHANNELS 3 Xrotation Yrotation Zrotation
							End Site
							{
								OFFSET 0.000000 10.009018 0.000000
							}
						}
					}
				}
			}
			JOINT LBackpack_Strap
			{
				OFFSET 15.223200 -7.719803 -6.610900
				CHANNELS 3 Xrotation Yrotation Zrotation
				End Site
				{
					OFFSET 0.000000 16.040596 0.000000
				}
			}
			JOINT RBackpack_Strap
			{
				OFFSET -15.223000 -7.719803 -6.610900
				CHANNELS 3 Xrotation Yrotation Zrotation
				End Site
				{
					OFFSET 0.000000 16.040596 0.000000
				}
			}
		}
	}
	JOINT BoyFacialAnim_Joint
	{
		OFFSET 1.000000 -82.208099 -1.550900
		CHANNELS 3 Xrotation Yrotation Zrotation
		End Site
		{
			OFFSET 0.000000 30.012791 0.000000
		}
	}
}
MOTION
Frames: 4
Frame Time: 0.016667
-9.900833 79.627258 -1.145202 12.566594 -130.761499 17.395857 0.000000 -0.000000 -0.000000 -103.350570 -20.686729 0.125964 87.862713 -11.545246 -32.887050 37.278749 -11.871720 -25.227613 -0.000000 0.000000 0.000001 -0.000000 0.000000 0.000001 -0.000000 -0.000001 -0.000000 -15.375312 31.635578 -6.003059 26.822470 18.957835 -3.684784 -7.980312 9.664372 11.996443 0.000000 0.000001 -0.000000 0.000000 0.000001 -0.000000 0.000000 -0.000000 0.000001 17.503827 1.254730 -1.105867 8.584645 -0.768854 -1.067724 8.613864 -0.684843 -1.055479 6.128101 42.115230 2.848585 7.484612 47.433874 -29.136938 -0.000001 0.000003 -0.000000 -0.000001 0.000003 -0.000000 -0.000001 0.000003 -0.000000 -2.314302 -19.181516 9.645827 -51.327331 -47.749514 -40.680607 -278.688712 -149.109464 -272.924797 -39.791620 -8.511759 26.630684 -1.432205 -10.034961 7.701101 0.670873 15.323982 -3.924345 -0.000002 -0.000002 0.000001 13.261834 -0.987915 16.342233 -0.165927 0.299382 -25.445549 -0.000000 -0.000001 0.000002 8.548218 -0.380212 4.744684 0.222582 0.632701 -24.241687 -0.000000 -0.000003 -0.000002 6.164200 3.070764 -10.552873 0.029720 0.292411 -24.465406 0.000001 0.000002 -0.000002 -5.502665 7.612672 -8.221724 0.203311 0.257480 -40.928290 -0.000001 0.000000 -0.000000 -0.000000 0.000001 -0.000001 -5.432983 22.644167 5.004593 -52.631669 7.939687 23.713467 118.664169 44.432703 -113.869273 -26.452915 -2.612702 -41.869473 0.242775 10.291373 -10.807285 1.082987 -16.586928 3.348105 -0.000001 0.000001 -0.000000 19.476558 11.202833 -14.310222 -0.119535 -0.321877 17.065474 -0.000001 0.000000 0.000000 4.333503 2.440261 -5.783572 0.339398 -0.451953 25.920206 -0.000000 0.000001 -0.000000 -7.040561 -10.715444 4.750276 0.113491 -0.086661 25.185790 0.000001 -0.000000 0.000000 -19.515392 -20.289292 5.002066 0.220584 -0.082077 35.874565 0.000002 -0.000003 -0.000000 -0.000000 -0.000000 -0.000001 0.000002 -0.000001 0.000001 0.000002 -0.000001 0.000001 0.000002 -0.000001 0.000001 0.000002 -0.000001 0.000001 0.000002 -0.000001 0.000002 0.000001 0.000000 -0.000000 0.000002 -0.000001 0.000001 0.000002 -0.000001 0.000002 0.000001 0.000000 -0.000000 0.000002 -0.000004 -0.000000 0.000002 -0.000004 -0.000000 0.000000 -0.000000 -0.000000 
-10.289753 79.713547 -0.980572 12.879058 -132.787251 17.869047 0.000001 0.000003 0.000001 -105.397940 -20.609580 0.795002 86.955405 -12.231366 -33.388594 36.852009 -12.260013 -26.837697 -0.000001 0.000000 0.000000 -0.000001 0.000000 0.000000 -0.000000 0.000003 0.000001 -14.287853 33.045029 -6.400958 26.343104 19.454185 -3.645683 -8.029032 9.713704 12.200472 -0.000000 0.000003 -0.000000 -0.000000 0.000003 -0.000000 0.000001 -0.000000 0.000000 17.882004 1.306372 -1.325479 8.889999 -0.672197 -1.209733 8.918210 -0.587176 -1.199351 6.896478 42.518150 2.371671 7.475153 47.851038 -29.457523 -0.000001 -0.000002 -0.000001 -0.000001 -0.000002 -0.000001 -0.000001 -0.000002 -0.000001 -2.111843 -18.783213 11.594748 -57.541352 -46.188717 -44.501971 -278.771794 -147.854348 -272.712433 -38.912421 -6.764446 26.414744 -1.404043 -9.882337 7.759691 0.819702 15.719832 -3.760170 -0.000004 -0.000001 0.000000 13.267456 -0.989209 15.858530 -0.165530 0.299783 -25.929316 -0.000000 0.000001 -0.000005 8.542898 -0.376231 4.260966 0.223923 0.635152 -24.725450 0.000001 0.000000 -0.000003 6.159677 3.076343 -11.036446 0.030907 0.295192 -24.949177 -0.000001 -0.000000 -0.000000 -5.511946 7.619116 -8.705109 0.205042 0.259184 -41.411997 -0.000003 0.000003 0.000000 -0.000001 0.000000 -0.000002 -4.710945 23.091015 2.504142 -57.009096 7.316071 23.385403 120.495315 44.831367 -115.618328 -25.258977 -3.285254 -43.084977 0.246950 10.259859 -10.819165 1.096960 -16.624499 3.332886 0.000000 0.000000 0.000000 19.476650 11.202804 -14.266139 -0.119525 -0.321935 17.109796 -0.000002 0.000000 0.000005 4.332941 2.440175 -5.739232 0.339600 -0.451888 25.964477 -0.000001 0.000000 0.000002 -7.040659 -10.715798 4.794433 0.113486 -0.087195 25.230036 0.000000 0.000001 -0.000001 -19.515280 -20.289430 5.046185 0.220728 -0.082241 35.918780 -0.000001 -0.000000 -0.000003 0.000002 0.000000 0.000000 0.000002 -0.000001 -0.000000 0.000002 -0.000001 -0.000000 0.000002 -0.000001 -0.000000 0.000002 -0.000001 -0.000000 0.000002 -0.000001 -0.000000 0.000001 -0.000001 0.000000 0.000002 -0.000001 -0.000000 0.000002 -0.000001 -0.000000 0.000001 -0.000001 0.000000 0.000001 0.000002 -0.000001 0.000001 0.000002 -0.000001 0.000001 0.000003 0.000001 
-10.684860 79.792519 -0.836190 13.227621 -134.611144 18.389666 -0.000000 0.000002 0.000001 -107.266413 -20.504216 1.348888 86.066312 -13.165103 -33.809682 36.092413 -12.544915 -28.526709 -0.000002 0.000001 0.000002 -0.000002 0.000001 0.000002 -0.000000 0.000001 0.000001 -13.158617 34.350814 -6.867718 25.985199 19.875695 -3.647102 -8.158013 9.725224 12.394325 0.000000 -0.000001 0.000000 0.000000 -0.000001 0.000000 -0.000000 -0.000000 0.000001 18.237701 1.348541 -1.540024 9.182358 -0.573628 -1.355681 9.209422 -0.487400 -1.347777 7.658640 42.872527 1.900499 7.471006 48.226152 -29.784853 -0.000000 -0.000003 -0.000000 -0.000000 -0.000003 -0.000000 -0.000000 -0.000003 -0.000000 -1.708637 -18.296963 14.299376 -63.045201 -44.076666 -47.688671 -278.832747 -146.576788 -272.650169 -36.274230 -4.437892 25.502301 -1.375936 -9.729497 7.818305 0.965331 16.109910 -3.599165 -0.000004 0.000001 -0.000000 13.273236 -0.990534 15.382344 -0.165112 0.300105 -26.405475 -0.000001 0.000003 -0.000001 8.537686 -0.372260 3.784796 0.225191 0.637507 -25.201699 -0.000002 0.000000 0.000000 6.155173 3.082798 -11.512409 0.032062 0.297847 -25.425354 -0.000002 -0.000002 -0.000001 -5.521695 7.626082 -9.180902 0.206759 0.260819 -41.888194 -0.000000 -0.000001 0.000001 -0.000000 0.000003 -0.000001 -3.961793 23.402296 0.011316 -60.996738 6.507660 22.843742 122.036137 45.207031 -117.083253 -24.195657 -3.692357 -44.353261 0.251441 10.226658 -10.831631 1.112216 -16.666068 3.315890 -0.000001 -0.000001 0.000001 19.476749 11.202723 -14.217315 -0.119493 -0.321985 17.158786 -0.000003 -0.000002 0.000003 4.332361 2.440067 -5.690258 0.339849 -0.451869 26.013440 -0.000000 0.000001 0.000003 -7.040655 -10.716144 4.843300 0.113522 -0.087710 25.279008 -0.000000 -0.000001 0.000002 -19.514962 -20.289504 5.094957 0.220874 -0.082434 35.967786 -0.000001 -0.000000 -0.000002 -0.000001 0.000000 0.000000 -0.000001 -0.000002 -0.000000 -0.000001 -0.000002 -0.000000 -0.000001 -0.000002 -0.000000 -0.000001 -0.000002 -0.000000 -0.000001 -0.000002 0.000001 -0.000002 -0.000002 0.000001 -0.000001 -0.000002 -0.000000 -0.000001 -0.000002 0.000001 -0.000002 -0.000002 0.000001 -0.000001 0.000001 -0.000001 -0.000001 0.000001 -0.000001 -0.000000 0.000002 0.000001 
-11.206205 79.859024 -0.730931 13.577438 -136.227112 18.943485 -0.000000 -0.000001 -0.000000 -109.087260 -20.231604 1.631449 85.440967 -13.980557 -34.035755 35.707867 -12.861435 -30.222563 -0.000001 0.000002 -0.000000 -0.000001 0.000002 -0.000002 0.000001 -0.000001 -0.000000 -11.965737 35.547262 -7.438266 25.905190 20.234061 -3.706160 -8.531766 9.688731 12.533058 -0.000000 -0.000001 -0.000000 -0.000000 -0.000001 -0.000000 -0.000000 -0.000000 0.000000 18.566560 1.396543 -1.739379 9.456796 -0.479588 -1.500250 9.482781 -0.391717 -1.495375 8.404169 43.182457 1.436507 7.469467 48.560722 -30.108977 -0.000001 -0.000002 0.000000 -0.000001 -0.000002 0.000000 -0.000001 -0.000002 0.000000 -1.353460 -17.783130 16.989121 -68.037679 -42.061838 -50.427300 -278.809278 -145.498138 -272.534930 -32.375278 -1.747021 24.022506 -1.348031 -9.576547 7.876801 1.107507 16.493343 -3.441746 -0.000001 -0.000001 -0.000000 13.279092 -0.991804 14.914905 -0.164736 0.300415 -26.872881 -0.000000 0.000001 0.000000 8.532582 -0.368289 3.317351 0.226400 0.639837 -25.669046 -0.000002 0.000000 0.000002 6.150684 3.089446 -11.979655 0.033242 0.300441 -25.892747 -0.000001 0.000003 -0.000002 -5.531914 7.633425 -9.647836 0.208429 0.262452 -42.355594 -0.000003 0.000003 -0.000001 -0.000000 0.000002 -0.000001 -3.221331 23.818381 -2.377800 -64.631007 5.220868 21.642979 123.514969 45.342043 -118.648446 -23.655944 -3.889356 -45.553195 0.256035 10.192097 -10.844650 1.128784 -16.711239 3.297530 -0.000001 0.000001 0.000000 19.476674 11.202589 -14.164241 -0.119388 -0.322005 17.211833 -0.000003 0.000000 0.000000 4.331637 2.439926 -5.637017 0.340111 -0.451853 26.066666 -0.000001 -0.000001 -0.000000 -7.040661 -10.716457 4.896190 0.113573 -0.088287 25.332176 -0.000001 0.000000 0.000000 -19.514602 -20.289512 5.147729 0.221077 -0.082623 36.020905 0.000002 -0.000002 0.000002 -0.000001 -0.000001 -0.000002 0.000001 -0.000003 0.000001 0.000001 -0.000003 0.000001 0.000001 -0.000003 0.000001 0.000001 -0.000003 0.000001 0.000001 -0.000003 0.000001 -0.000000 0.000004 -0.000001 0.000001 -0.000003 0.000001 0.000001 -0.000003 0.000001 -0.000000 0.000004 -0.000001 0.000002 0.000001 -0.000000 0.000002 0.000001 -0.000000 -0.000000 -0.000001 -0.000000 
